<svg width="24" height="24" viewBox="0 0 24 24" fill="none" xmlns="http://www.w3.org/2000/svg">
  <path d="M8.813 5.477c1.038.836 2.286 2.045 3.3 3.495.171.23.377.576.457.71l.034.056a8.803 8.803 0 0 0-.922 1.3l-.271-.494C9.655 7.53 6.3 5.477 6.137 5.377a.447.447 0 0 1-.006-.004l-.666-.393-.107-.086a.499.499 0 0 1 .306-.885L6.084 4h7.997c.159.006.318.037.47.092.174.064.317.174.458.308.134.143.272.296.403.448.622.675 1.324 1.688 1.324 1.688-.573.193-1.349.736-1.349.736a5.095 5.095 0 0 0-.348-.54 20.665 20.665 0 0 0-1.037-1.255H8.813Z" fill="#2B2F36"/>
</svg>
